<svg width="17" height="16" viewBox="0 0 17 16" fill="none" xmlns="http://www.w3.org/2000/svg">
<path d="M15.3121 4.43126C15.0897 3.94632 14.7691 3.50687 14.3682 3.13751C13.9669 2.76705 13.4938 2.47265 12.9746 2.27032C12.4363 2.05969 11.8588 1.95187 11.2759 1.95314C10.458 1.95314 9.66006 2.16407 8.96662 2.56251C8.80072 2.65782 8.64312 2.76251 8.49381 2.87657C8.34451 2.76251 8.18691 2.65782 8.02101 2.56251C7.32757 2.16407 6.52962 1.95314 5.71175 1.95314C5.12283 1.95314 4.55215 2.05939 4.01299 2.27032C3.49208 2.47345 3.0226 2.76564 2.61947 3.13751C2.218 3.50645 1.89729 3.94601 1.67553 4.43126C1.44493 4.93595 1.32715 5.47189 1.32715 6.02345C1.32715 6.54376 1.43996 7.08595 1.66392 7.63751C1.85138 8.09845 2.12013 8.57657 2.46353 9.05939C3.00767 9.82345 3.75585 10.6203 4.68486 11.4281C6.22437 12.7672 7.74895 13.6922 7.81365 13.7297L8.20682 13.9672C8.38101 14.0719 8.60496 14.0719 8.77915 13.9672L9.17233 13.7297C9.23703 13.6906 10.7599 12.7672 12.3011 11.4281C13.2301 10.6203 13.9783 9.82345 14.5224 9.05939C14.8658 8.57657 15.1363 8.09845 15.3221 7.63751C15.546 7.08595 15.6588 6.54376 15.6588 6.02345C15.6605 5.47189 15.5427 4.93595 15.3121 4.43126Z" fill="#EFEFEF"/>
</svg>
