<svg width="18" height="16" viewBox="0 0 18 16" fill="none" xmlns="http://www.w3.org/2000/svg">
<path d="M16.2637 4.43126C16.0413 3.94632 15.7207 3.50687 15.3198 3.13751C14.9186 2.76705 14.4455 2.47265 13.9264 2.27032C13.388 2.05969 12.8106 1.95187 12.2277 1.95314C11.4099 1.95314 10.612 2.16407 9.91856 2.56251C9.75268 2.65782 9.59509 2.76251 9.44579 2.87657C9.29649 2.76251 9.1389 2.65782 8.97302 2.56251C8.27962 2.16407 7.48171 1.95314 6.66389 1.95314C6.075 1.95314 5.50435 2.05939 4.96523 2.27032C4.44435 2.47345 3.97489 2.76564 3.57179 3.13751C3.17034 3.50645 2.84965 3.94601 2.6279 4.43126C2.39732 4.93595 2.27954 5.47189 2.27954 6.02345C2.27954 6.54376 2.39234 7.08595 2.61629 7.63751C2.80374 8.09845 3.07247 8.57657 3.41586 9.05939C3.95996 9.82345 4.7081 10.6203 5.63706 11.4281C7.17648 12.7672 8.70096 13.6922 8.76566 13.7297L9.15881 13.9672C9.33299 14.0719 9.55693 14.0719 9.73111 13.9672L10.1243 13.7297C10.189 13.6906 11.7118 12.7672 13.2529 11.4281C14.1818 10.6203 14.93 9.82345 15.4741 9.05939C15.8174 8.57657 16.0878 8.09845 16.2736 7.63751C16.4976 7.08595 16.6104 6.54376 16.6104 6.02345C16.612 5.47189 16.4943 4.93595 16.2637 4.43126Z" fill="#EFEFEF"/>
</svg>
