<svg width="25" height="26" viewBox="0 0 25 26" fill="none" xmlns="http://www.w3.org/2000/svg">
<g clip-path="url(#clip0_401_240)">
<path d="M2.86801 12.5973L16.6445 7.91581C16.7196 7.89028 16.8004 7.88629 16.8776 7.9043C16.9549 7.92231 17.0256 7.96159 17.0817 8.01769C17.1378 8.0738 17.1771 8.14449 17.1951 8.22176C17.2131 8.29904 17.2091 8.37981 17.1836 8.45494L12.5015 22.232C12.4752 22.3091 12.4273 22.377 12.3635 22.4277C12.2996 22.4783 12.2226 22.5096 12.1415 22.5177C12.0605 22.5258 11.9788 22.5104 11.9062 22.4734C11.8336 22.4364 11.7732 22.3793 11.7322 22.3089L9.19336 17.9418C9.15231 17.8711 9.13251 17.79 9.13635 17.7084C9.14019 17.6267 9.16749 17.5479 9.215 17.4814L12.6614 12.6562C12.6819 12.6275 12.695 12.5941 12.6994 12.559C12.7038 12.524 12.6994 12.4884 12.6866 12.4555L12.6614 12.4086C12.6336 12.3696 12.5934 12.3411 12.5473 12.3278C12.5013 12.3144 12.4521 12.3171 12.4077 12.3353L12.3645 12.3593L7.51285 15.8249C7.44632 15.8722 7.36758 15.8993 7.28605 15.9031C7.20451 15.9068 7.12362 15.887 7.05305 15.8459L2.79107 13.3678C2.72051 13.3269 2.66322 13.2665 2.62605 13.1939C2.58887 13.1213 2.57339 13.0395 2.58143 12.9583C2.58948 12.8771 2.62073 12.8 2.67144 12.7361C2.72215 12.6722 2.79018 12.6242 2.86741 12.5979L2.86801 12.5973Z" fill="#EFEFEF"/>
</g>
<defs>
<clipPath id="clip0_401_240">
<rect width="17" height="17" fill="white" transform="translate(0 13) rotate(-45)"/>
</clipPath>
</defs>
</svg>
