<svg width="25" height="26" viewBox="0 0 25 26" fill="none" xmlns="http://www.w3.org/2000/svg">
<g clip-path="url(#clip0_82_820)">
<path d="M2.86825 12.5971L16.6447 7.91556C16.7198 7.89004 16.8006 7.88605 16.8779 7.90406C16.9552 7.92206 17.0258 7.96134 17.082 8.01745C17.1381 8.07355 17.1773 8.14425 17.1953 8.22152C17.2134 8.2988 17.2094 8.37957 17.1838 8.4547L12.5017 22.2318C12.4754 22.3089 12.4275 22.3768 12.3637 22.4274C12.2999 22.4781 12.2229 22.5093 12.1418 22.5174C12.0607 22.5255 11.979 22.5102 11.9065 22.4732C11.8339 22.4361 11.7735 22.3791 11.7324 22.3087L9.1936 17.9415C9.15255 17.8708 9.13275 17.7898 9.13659 17.7081C9.14043 17.6265 9.16774 17.5477 9.21524 17.4811L12.6616 12.656C12.6822 12.6272 12.6952 12.5938 12.6997 12.5588C12.7041 12.5237 12.6997 12.4881 12.6869 12.4552L12.6616 12.4083C12.6338 12.3693 12.5936 12.3408 12.5476 12.3275C12.5015 12.3142 12.4523 12.3168 12.408 12.335L12.3647 12.3591L7.51309 15.8247C7.44657 15.8719 7.36783 15.8991 7.28629 15.9028C7.20475 15.9065 7.12387 15.8867 7.0533 15.8457L2.79132 13.3676C2.72075 13.3267 2.66346 13.2663 2.62629 13.1937C2.58912 13.121 2.57363 13.0393 2.58168 12.9581C2.58973 12.8769 2.62097 12.7997 2.67168 12.7358C2.72239 12.6719 2.79042 12.624 2.86765 12.5977L2.86825 12.5971Z" fill="#EFEFEF"/>
</g>
<defs>
<clipPath id="clip0_82_820">
<rect width="17" height="17" fill="white" transform="translate(0 13) rotate(-45)"/>
</clipPath>
</defs>
</svg>
