<svg width="22" height="22" viewBox="0 0 22 22" fill="none" xmlns="http://www.w3.org/2000/svg">
<g clip-path="url(#clip0_223_512)">
<path d="M11.5036 6.99851C13.4317 6.99851 15.0051 8.57195 15.0051 10.5C15.0051 12.4281 13.4317 14.0015 11.5036 14.0015C9.57555 14.0015 8.00211 12.4281 8.00211 10.5C8.00211 8.57195 9.57555 6.99851 11.5036 6.99851ZM1.00176 10.5C1.00176 9.05002 0.988621 7.61317 1.07005 6.16582C1.15148 4.48469 1.53499 2.99268 2.76432 1.76335C3.99628 0.53139 5.48566 0.150507 7.1668 0.0690774C8.61678 -0.0123526 10.0536 0.000781319 11.501 0.000781319C12.951 0.000781319 14.3878 -0.0123526 15.8352 0.0690774C17.5163 0.150507 19.0083 0.534016 20.2376 1.76335C21.4696 2.9953 21.8505 4.48469 21.9319 6.16582C22.0133 7.6158 22.0002 9.05265 22.0002 10.5C22.0002 11.9474 22.0133 13.3868 21.9319 14.8342C21.8505 16.5153 21.467 18.0073 20.2376 19.2367C19.0057 20.4686 17.5163 20.8495 15.8352 20.9309C14.3852 21.0124 12.9483 20.9992 11.501 20.9992C10.051 20.9992 8.61415 21.0124 7.1668 20.9309C5.48566 20.8495 3.99365 20.466 2.76432 19.2367C1.53237 18.0047 1.15148 16.5153 1.07005 14.8342C0.985994 13.3868 1.00176 11.95 1.00176 10.5ZM11.5036 15.8875C14.485 15.8875 16.8911 13.4814 16.8911 10.5C16.8911 7.51861 14.485 5.11248 11.5036 5.11248C8.52221 5.11248 6.11609 7.51861 6.11609 10.5C6.11609 13.4814 8.52221 15.8875 11.5036 15.8875ZM5.89544 6.15006C6.59153 6.15006 7.15366 5.58793 7.15366 4.89184C7.15366 4.19574 6.59153 3.63361 5.89544 3.63361C5.19934 3.63361 4.63721 4.19574 4.63721 4.89184C4.637 5.05713 4.66941 5.22083 4.73257 5.37358C4.79572 5.52633 4.8884 5.66512 5.00528 5.782C5.12215 5.89888 5.26094 5.99155 5.41369 6.05471C5.56644 6.11787 5.73015 6.15027 5.89544 6.15006Z" fill="#EFEFEF"/>
</g>
<defs>
<clipPath id="clip0_223_512">
<rect x="0.401123" y="0.375" width="21.25" height="21.25" rx="3" fill="white"/>
</clipPath>
</defs>
</svg>
