<svg width="22" height="22" viewBox="0 0 22 22" fill="none" xmlns="http://www.w3.org/2000/svg">
<g clip-path="url(#clip0_223_500)">
<path fill-rule="evenodd" clip-rule="evenodd" d="M0.68457 11.5703C0.68457 16.7906 4.47595 21.1315 9.43457 22.0117L9.43457 14.4281H6.80957V11.5117H9.43457V9.17809C9.43457 6.55309 11.1259 5.09534 13.5182 5.09534C14.2759 5.09534 15.0932 5.21172 15.8509 5.32809V8.01172H14.5096C13.2259 8.01172 12.9346 8.65309 12.9346 9.47034V11.5117H15.7346L15.2682 14.4281H12.9346L12.9346 22.0117C17.8932 21.1315 21.6846 16.7915 21.6846 11.5703C21.6846 5.76297 16.9596 1.01172 11.1846 1.01172C5.40957 1.01172 0.68457 5.76297 0.68457 11.5703Z" fill="#EFEFEF"/>
</g>
<defs>
<clipPath id="clip0_223_500">
<rect x="0.401123" y="0.375" width="21.25" height="21.25" rx="3" fill="white"/>
</clipPath>
</defs>
</svg>
