<svg width="25" height="26" viewBox="0 0 25 26" fill="none" xmlns="http://www.w3.org/2000/svg">
<g clip-path="url(#clip0_505_37)">
<path d="M2.86801 12.5971L16.6445 7.91556C16.7196 7.89004 16.8004 7.88605 16.8776 7.90406C16.9549 7.92206 17.0256 7.96134 17.0817 8.01745C17.1378 8.07355 17.1771 8.14425 17.1951 8.22152C17.2131 8.2988 17.2091 8.37957 17.1836 8.4547L12.5015 22.2318C12.4752 22.3089 12.4273 22.3768 12.3635 22.4274C12.2996 22.4781 12.2226 22.5093 12.1415 22.5174C12.0605 22.5255 11.9788 22.5102 11.9062 22.4732C11.8336 22.4361 11.7732 22.3791 11.7322 22.3087L9.19336 17.9415C9.15231 17.8708 9.13251 17.7898 9.13635 17.7081C9.14019 17.6265 9.16749 17.5477 9.215 17.4811L12.6614 12.656C12.6819 12.6272 12.695 12.5938 12.6994 12.5588C12.7038 12.5237 12.6994 12.4881 12.6866 12.4552L12.6614 12.4083C12.6336 12.3693 12.5934 12.3408 12.5473 12.3275C12.5013 12.3142 12.4521 12.3168 12.4077 12.335L12.3645 12.3591L7.51285 15.8247C7.44632 15.8719 7.36758 15.8991 7.28605 15.9028C7.20451 15.9065 7.12362 15.8867 7.05305 15.8457L2.79107 13.3676C2.72051 13.3267 2.66322 13.2663 2.62605 13.1937C2.58887 13.121 2.57339 13.0393 2.58143 12.9581C2.58948 12.8769 2.62073 12.7997 2.67144 12.7358C2.72215 12.6719 2.79018 12.624 2.86741 12.5977L2.86801 12.5971Z" fill="#EFEFEF"/>
</g>
<defs>
<clipPath id="clip0_505_37">
<rect width="17" height="17" fill="white" transform="translate(0 13) rotate(-45)"/>
</clipPath>
</defs>
</svg>
