<svg width="31" height="31" viewBox="0 0 31 31" fill="none" xmlns="http://www.w3.org/2000/svg">
<g clip-path="url(#clip0_223_474)">
<path d="M3.58525 14.7466L20.8058 8.8947C20.8997 8.86279 21.0007 8.85781 21.0973 8.88032C21.1939 8.90282 21.2823 8.95192 21.3524 9.02206C21.4225 9.09219 21.4716 9.18055 21.4941 9.27715C21.5166 9.37374 21.5116 9.47471 21.4797 9.56862L15.6271 26.7899C15.5942 26.8863 15.5343 26.9712 15.4546 27.0345C15.3748 27.0978 15.2785 27.1369 15.1772 27.147C15.0758 27.1572 14.9737 27.1379 14.883 27.0917C14.7923 27.0454 14.7168 26.9741 14.6654 26.8861L11.4919 21.4272C11.4406 21.3388 11.4159 21.2375 11.4207 21.1354C11.4255 21.0333 11.4596 20.9348 11.519 20.8517L15.827 14.8202C15.8527 14.7843 15.869 14.7426 15.8745 14.6987C15.88 14.6549 15.8745 14.6104 15.8585 14.5693L15.827 14.5107C15.7922 14.4619 15.7419 14.4263 15.6844 14.4096C15.6268 14.393 15.5653 14.3963 15.5099 14.419L15.4558 14.4491L9.39131 18.7811C9.30815 18.8402 9.20972 18.8741 9.1078 18.8788C9.00588 18.8834 8.90477 18.8586 8.81656 18.8074L3.48909 15.7098C3.40088 15.6586 3.32927 15.5831 3.2828 15.4923C3.23634 15.4015 3.21698 15.2993 3.22704 15.1978C3.2371 15.0964 3.27615 14.9999 3.33954 14.92C3.40293 14.8401 3.48796 14.7802 3.5845 14.7473L3.58525 14.7466Z" fill="#EFEFEF"/>
</g>
<defs>
<clipPath id="clip0_223_474">
<rect y="15.25" width="21.25" height="21.25" rx="3" transform="rotate(-45 0 15.25)" fill="white"/>
</clipPath>
</defs>
</svg>
