<svg width="17" height="14" viewBox="0 0 17 14" fill="none" xmlns="http://www.w3.org/2000/svg">
<path d="M7.95721 13.0938C7.95721 13.0938 6.95654 13.0938 6.95654 12.0026C6.95654 10.9115 7.95721 7.63802 11.9599 7.63802C15.9626 7.63802 16.9632 10.9115 16.9632 12.0026C16.9632 13.0938 15.9626 13.0938 15.9626 13.0938H7.95721ZM11.9599 6.54688C12.7561 6.54688 13.5196 6.202 14.0826 5.58811C14.6456 4.97422 14.9619 4.14161 14.9619 3.27344C14.9619 2.40527 14.6456 1.57266 14.0826 0.958768C13.5196 0.344879 12.7561 0 11.9599 0C11.1637 0 10.4001 0.344879 9.83715 0.958768C9.27416 1.57266 8.95788 2.40527 8.95788 3.27344C8.95788 4.14161 9.27416 4.97422 9.83715 5.58811C10.4001 6.202 11.1637 6.54688 11.9599 6.54688Z" fill="#EFEFEF"/>
<path fill-rule="evenodd" clip-rule="evenodd" d="M6.17188 13.0937C6.02354 12.7531 5.94955 12.3796 5.95573 12.0026C5.95573 10.5241 6.63619 9.00194 7.89303 7.94353C7.2657 7.73276 6.61212 7.62969 5.95573 7.63801C1.95306 7.63801 0.952393 10.9114 0.952393 12.0026C0.952393 13.0937 1.95306 13.0937 1.95306 13.0937H6.17188Z" fill="#EFEFEF"/>
<path d="M5.45553 6.54713C6.11901 6.54713 6.75532 6.25973 7.22448 5.74816C7.69363 5.23658 7.9572 4.54274 7.9572 3.81927C7.9572 3.09579 7.69363 2.40195 7.22448 1.89037C6.75532 1.3788 6.11901 1.0914 5.45553 1.0914C4.79204 1.0914 4.15573 1.3788 3.68658 1.89037C3.21743 2.40195 2.95386 3.09579 2.95386 3.81927C2.95386 4.54274 3.21743 5.23658 3.68658 5.74816C4.15573 6.25973 4.79204 6.54713 5.45553 6.54713Z" fill="#EFEFEF"/>
</svg>
