<svg width="17" height="14" viewBox="0 0 17 14" fill="none" xmlns="http://www.w3.org/2000/svg">
<path d="M7.00512 13.0938C7.00512 13.0938 6.00439 13.0938 6.00439 12.0026C6.00439 10.9115 7.00512 7.63802 11.008 7.63802C15.0109 7.63802 16.0117 10.9115 16.0117 12.0026C16.0117 13.0938 15.0109 13.0938 15.0109 13.0938H7.00512ZM11.008 6.54688C11.8043 6.54688 12.5679 6.202 13.1309 5.58811C13.6939 4.97422 14.0102 4.14161 14.0102 3.27344C14.0102 2.40527 13.6939 1.57266 13.1309 0.958768C12.5679 0.344879 11.8043 0 11.008 0C10.2118 0 9.44818 0.344879 8.88517 0.958768C8.32215 1.57266 8.00585 2.40527 8.00585 3.27344C8.00585 4.14161 8.32215 4.97422 8.88517 5.58811C9.44818 6.202 10.2118 6.54688 11.008 6.54688Z" fill="#EFEFEF"/>
<path fill-rule="evenodd" clip-rule="evenodd" d="M5.21979 13.0937C5.07144 12.7531 4.99745 12.3796 5.00363 12.0026C5.00363 10.5241 5.68413 9.00194 6.94104 7.94353C6.31368 7.73276 5.66006 7.62969 5.00363 7.63801C1.00073 7.63801 0 10.9114 0 12.0026C0 13.0937 1.00073 13.0937 1.00073 13.0937H5.21979Z" fill="#EFEFEF"/>
<path d="M4.50334 6.54713C5.16687 6.54713 5.80321 6.25973 6.27239 5.74816C6.74158 5.23658 7.00516 4.54274 7.00516 3.81927C7.00516 3.09579 6.74158 2.40195 6.27239 1.89037C5.80321 1.3788 5.16687 1.0914 4.50334 1.0914C3.83982 1.0914 3.20347 1.3788 2.73429 1.89037C2.26511 2.40195 2.00153 3.09579 2.00153 3.81927C2.00153 4.54274 2.26511 5.23658 2.73429 5.74816C3.20347 6.25973 3.83982 6.54713 4.50334 6.54713Z" fill="#EFEFEF"/>
</svg>
