<svg width="139" height="21" viewBox="0 0 139 21" fill="none" xmlns="http://www.w3.org/2000/svg">
<path d="M15.0454 5.07753C14.1304 4.88695 13.3026 4.42672 12.6809 3.76289C12.0592 3.09906 11.6755 2.26575 11.5849 1.38254V1H8.41807V12.8848C8.41872 13.4122 8.24416 13.9263 7.91914 14.3545C7.59411 14.7827 7.13509 15.1031 6.6071 15.2705C6.0791 15.4378 5.50891 15.4435 4.97727 15.2869C4.44564 15.1302 3.97952 14.8191 3.64495 14.3976C3.3452 14.0245 3.16166 13.5794 3.11507 13.1126C3.06848 12.6458 3.1607 12.176 3.38131 11.7563C3.60191 11.3366 3.9421 10.9837 4.36341 10.7376C4.78471 10.4915 5.27032 10.3619 5.76532 10.3635C6.03908 10.3621 6.31147 10.4002 6.57308 10.4766V7.43363C6.26864 7.39792 5.96185 7.38339 5.65517 7.39016C4.52551 7.41875 3.42917 7.75873 2.50039 8.36848C1.57162 8.97822 0.850733 9.83126 0.426004 10.8231C0.00127473 11.815 -0.10886 12.9027 0.109087 13.9529C0.327034 15.0032 0.863602 15.9705 1.65309 16.7363C2.46221 17.5155 3.49762 18.0492 4.62775 18.2698C5.75788 18.4903 6.93172 18.3876 8.00011 17.9749C9.06851 17.5621 9.98323 16.8578 10.6281 15.9515C11.2729 15.0451 11.6187 13.9777 11.6216 12.8848V6.79896C12.8988 7.66311 14.4304 8.12537 16 8.12046V5.16447C15.6917 5.16567 15.3841 5.13654 15.0821 5.07753H15.0454Z" fill="#36586C"/>
<path d="M96.491 6.50211C96.3734 6.11809 96.1445 5.77042 95.8285 5.49605C95.5035 5.21325 95.1052 5.01095 94.6712 4.90826C93.0469 4.51614 86.5394 4.51614 86.5394 4.51614C83.8265 4.48786 81.1143 4.61221 78.418 4.88846C77.984 4.99874 77.5865 5.20555 77.2608 5.49051C76.9408 5.77252 76.709 6.12029 76.5879 6.50132C76.297 7.93654 76.1557 9.39382 76.1658 10.8535C76.1554 12.3119 76.2964 13.7687 76.5879 15.2057C76.7064 15.5852 76.9373 15.9313 77.2582 16.211C77.5791 16.4906 77.9786 16.6926 78.418 16.7996C80.0639 17.1909 86.5394 17.1909 86.5394 17.1909C89.2558 17.2192 91.9715 17.0949 94.6712 16.8186C95.1052 16.7159 95.5035 16.5136 95.8285 16.2308C96.1444 15.9565 96.3731 15.6088 96.4901 15.2247C96.7886 13.7901 96.9337 12.3322 96.9234 10.8717C96.9459 9.40511 96.8009 7.94035 96.491 6.50132V6.50211ZM84.4706 13.5659V8.14191L89.8849 10.8543L84.4706 13.5659Z" fill="#36586C"/>
<path fill-rule="evenodd" clip-rule="evenodd" d="M138.686 10.8539C138.686 16.4571 134.038 21 128.306 21C122.574 21 117.926 16.4571 117.926 10.8539C117.926 5.25068 122.574 0.707764 128.306 0.707764C134.038 0.707764 138.686 5.25068 138.686 10.8539ZM128.678 8.19813C127.668 8.6082 125.65 9.45794 122.625 10.7465C122.133 10.9376 121.875 11.1244 121.852 11.3071C121.812 11.6165 122.208 11.7383 122.747 11.9031C122.82 11.926 122.896 11.9488 122.974 11.9742C123.504 12.1424 124.217 12.3394 124.587 12.347C124.924 12.3538 125.299 12.2185 125.714 11.9412C128.54 10.0752 130 9.13241 130.091 9.11212C130.156 9.09775 130.246 9.07915 130.307 9.13241C130.367 9.18484 130.361 9.28461 130.355 9.31166C130.315 9.47485 128.764 10.886 127.959 11.6165C127.708 11.844 127.531 12.0055 127.495 12.0427C127.413 12.1247 127.33 12.2033 127.251 12.2786C126.758 12.7419 126.389 13.0902 127.271 13.6584C127.695 13.9315 128.034 14.1573 128.373 14.3822C128.742 14.6282 129.11 14.8734 129.588 15.1795C129.709 15.2573 129.825 15.3376 129.938 15.4162C130.368 15.7164 130.755 15.9853 131.232 15.943C131.509 15.9176 131.796 15.6631 131.942 14.903C132.285 13.1055 132.962 9.21274 133.118 7.60796C133.128 7.47472 133.122 7.34086 133.101 7.20888C133.088 7.10229 133.035 7.00421 132.952 6.93409C132.828 6.83517 132.636 6.81403 132.55 6.81572C132.16 6.82248 131.561 7.02625 128.678 8.19813Z" fill="#36586C"/>
<path d="M46.085 7.89289C47.7528 7.89289 49.1138 9.22324 49.1138 10.8534C49.1138 12.4836 47.7528 13.814 46.085 13.814C44.4173 13.814 43.0563 12.4836 43.0563 10.8534C43.0563 9.22324 44.4173 7.89289 46.085 7.89289ZM37.0009 10.8534C37.0009 9.62746 36.9896 8.41259 37.06 7.18884C37.1305 5.76743 37.4622 4.50592 38.5256 3.46651C39.5912 2.42488 40.8795 2.10284 42.3337 2.03399C43.5879 1.96514 44.8308 1.97625 46.0828 1.97625C47.337 1.97625 48.5799 1.96514 49.8318 2.03399C51.286 2.10284 52.5766 2.4271 53.64 3.46651C54.7056 4.50814 55.0351 5.76743 55.1055 7.18884C55.176 8.41481 55.1646 9.62968 55.1646 10.8534C55.1646 12.0772 55.176 13.2943 55.1055 14.518C55.0351 15.9394 54.7034 17.2009 53.64 18.2403C52.5743 19.282 51.286 19.604 49.8318 19.6729C48.5776 19.7417 47.3347 19.7306 46.0828 19.7306C44.8285 19.7306 43.5857 19.7417 42.3337 19.6729C40.8795 19.604 39.5889 19.2798 38.5256 18.2403C37.4599 17.1987 37.1305 15.9394 37.06 14.518C36.9873 13.2943 37.0009 12.0794 37.0009 10.8534ZM46.085 15.4086C48.664 15.4086 50.7453 13.3742 50.7453 10.8534C50.7453 8.33264 48.664 6.29824 46.085 6.29824C43.5061 6.29824 41.4248 8.33264 41.4248 10.8534C41.4248 13.3742 43.5061 15.4086 46.085 15.4086ZM41.234 7.17552C41.8361 7.17552 42.3223 6.70023 42.3223 6.11168C42.3223 5.52312 41.8361 5.04784 41.234 5.04784C40.6319 5.04784 40.1456 5.52312 40.1456 6.11168C40.1454 6.25143 40.1735 6.38985 40.2281 6.519C40.2827 6.64815 40.3629 6.7655 40.464 6.86432C40.5651 6.96314 40.6851 7.04149 40.8173 7.09489C40.9494 7.1483 41.091 7.17569 41.234 7.17552Z" fill="#36586C"/>
</svg>
