<svg width="114" height="16" viewBox="0 0 114 16" fill="none" xmlns="http://www.w3.org/2000/svg">
<path fill-rule="evenodd" clip-rule="evenodd" d="M0.827759 8.04467C0.827759 12.022 3.71643 15.3293 7.49443 16V10.222H5.49443V8H7.49443V6.222C7.49443 4.222 8.78309 3.11133 10.6058 3.11133C11.1831 3.11133 11.8058 3.2 12.3831 3.28867V5.33333H11.3611C10.3831 5.33333 10.1611 5.822 10.1611 6.44467V8H12.2944L11.9391 10.222H10.1611V16C13.9391 15.3293 16.8278 12.0227 16.8278 8.04467C16.8278 3.62 13.2278 0 8.82776 0C4.42776 0 0.827759 3.62 0.827759 8.04467Z" fill="#36586C"/>
<path d="M80.4927 4.569C80.4021 4.26621 80.2257 3.99207 79.9821 3.77574C79.7317 3.55276 79.4247 3.39325 79.0903 3.31228C77.8384 3.0031 72.8231 3.0031 72.8231 3.0031C70.7323 2.98081 68.6419 3.07885 66.5639 3.29667C66.2294 3.38362 65.9231 3.54669 65.6721 3.77137C65.4254 3.99373 65.2468 4.26794 65.1535 4.56838C64.9293 5.70001 64.8204 6.84905 64.8282 8C64.8202 9.14991 64.9288 10.2986 65.1535 11.4316C65.2448 11.7308 65.4228 12.0038 65.6701 12.2243C65.9174 12.4447 66.2253 12.604 66.5639 12.6883C67.8324 12.9969 72.8231 12.9969 72.8231 12.9969C74.9166 13.0192 77.0096 12.9212 79.0903 12.7033C79.4247 12.6224 79.7317 12.4628 79.9821 12.2399C80.2256 12.0236 80.4019 11.7494 80.4921 11.4466C80.7221 10.3154 80.8339 9.16589 80.826 8.01436C80.8433 6.85796 80.7316 5.70302 80.4927 4.56838V4.569ZM71.2286 10.1387V5.86195L75.4014 8.00062L71.2286 10.1387Z" fill="#36586C"/>
<path fill-rule="evenodd" clip-rule="evenodd" d="M113.828 8C113.828 12.418 110.246 16 105.828 16C101.41 16 97.8278 12.418 97.8278 8C97.8278 3.582 101.41 0 105.828 0C110.246 0 113.828 3.582 113.828 8ZM106.114 5.906C105.336 6.22933 103.781 6.89933 101.449 7.91533C101.07 8.066 100.872 8.21333 100.854 8.35733C100.823 8.60133 101.128 8.69733 101.543 8.82733C101.6 8.84533 101.658 8.86333 101.718 8.88333C102.127 9.016 102.676 9.17133 102.962 9.17733C103.221 9.18267 103.51 9.076 103.83 8.85733C106.008 7.386 107.133 6.64267 107.204 6.62667C107.254 6.61533 107.323 6.60067 107.37 6.64267C107.416 6.684 107.412 6.76267 107.407 6.784C107.376 6.91267 106.18 8.02533 105.56 8.60133C105.367 8.78067 105.23 8.908 105.202 8.93733C105.14 9.002 105.076 9.064 105.014 9.12333C104.634 9.48867 104.35 9.76333 105.03 10.2113C105.357 10.4267 105.618 10.6047 105.879 10.782C106.164 10.976 106.448 11.1693 106.816 11.4107C106.909 11.472 106.998 11.5353 107.086 11.5973C107.417 11.834 107.715 12.046 108.083 12.0127C108.296 11.9927 108.518 11.792 108.63 11.1927C108.894 9.77533 109.416 6.706 109.536 5.44067C109.544 5.33561 109.539 5.23006 109.523 5.126C109.513 5.04195 109.472 4.96462 109.408 4.90933C109.313 4.83133 109.165 4.81467 109.098 4.816C108.798 4.82133 108.336 4.982 106.114 5.906Z" fill="#36586C"/>
<path d="M40.8296 5.66567C42.115 5.66567 43.1639 6.71463 43.1639 8C43.1639 9.28537 42.115 10.3343 40.8296 10.3343C39.5443 10.3343 38.4954 9.28537 38.4954 8C38.4954 6.71463 39.5443 5.66567 40.8296 5.66567ZM33.8285 8C33.8285 7.03335 33.8198 6.07545 33.8741 5.11055C33.9284 3.98979 34.184 2.99512 35.0036 2.17556C35.8249 1.35426 36.8178 1.10034 37.9385 1.04605C38.9051 0.991765 39.863 1.00052 40.8279 1.00052C41.7945 1.00052 42.7524 0.991765 43.7173 1.04605C44.838 1.10034 45.8327 1.35601 46.6522 2.17556C47.4735 2.99687 47.7274 3.98979 47.7817 5.11055C47.836 6.0772 47.8272 7.0351 47.8272 8C47.8272 8.9649 47.836 9.92455 47.7817 10.8895C47.7274 12.0102 47.4718 13.0049 46.6522 13.8244C45.8309 14.6457 44.838 14.8997 43.7173 14.9539C42.7507 15.0082 41.7928 14.9995 40.8279 14.9995C39.8613 14.9995 38.9034 15.0082 37.9385 14.9539C36.8178 14.8997 35.8231 14.644 35.0036 13.8244C34.1823 13.0031 33.9284 12.0102 33.8741 10.8895C33.818 9.92455 33.8285 8.96665 33.8285 8ZM40.8296 11.5917C42.8172 11.5917 44.4213 9.98759 44.4213 8C44.4213 6.01241 42.8172 4.40832 40.8296 4.40832C38.8421 4.40832 37.238 6.01241 37.238 8C37.238 9.98759 38.8421 11.5917 40.8296 11.5917ZM37.0909 5.10004C37.555 5.10004 37.9297 4.72529 37.9297 4.26122C37.9297 3.79716 37.555 3.42241 37.0909 3.42241C36.6269 3.42241 36.2521 3.79716 36.2521 4.26122C36.252 4.37142 36.2736 4.48056 36.3157 4.58239C36.3578 4.68422 36.4196 4.77675 36.4975 4.85467C36.5754 4.93258 36.6679 4.99437 36.7698 5.03647C36.8716 5.07858 36.9807 5.10018 37.0909 5.10004Z" fill="#36586C"/>
</svg>
