<svg width="110" height="16" viewBox="0 0 110 16" fill="none" xmlns="http://www.w3.org/2000/svg">
<path d="M12.5631 4.32208C11.857 4.16681 11.2183 3.79185 10.7385 3.25101C10.2587 2.71016 9.96265 2.03124 9.8927 1.31167V1H7.44895V10.6829C7.44945 11.1126 7.31475 11.5315 7.06393 11.8803C6.81312 12.2292 6.4589 12.4902 6.05146 12.6266C5.64401 12.7629 5.204 12.7676 4.79375 12.64C4.3835 12.5123 4.0238 12.2588 3.76562 11.9154C3.53431 11.6114 3.39267 11.2488 3.35672 10.8685C3.32077 10.4882 3.39193 10.1054 3.56217 9.7635C3.73241 9.42155 3.99493 9.13405 4.32004 8.93352C4.64515 8.73298 5.01989 8.62742 5.40187 8.62875C5.61312 8.62754 5.82332 8.65859 6.0252 8.72083V6.24167C5.79028 6.21257 5.55353 6.20074 5.31687 6.20625C4.44513 6.22954 3.5991 6.50654 2.88239 7.00331C2.16567 7.50009 1.60938 8.19509 1.28162 9.0032C0.953865 9.81132 0.868876 10.6975 1.03706 11.5531C1.20525 12.4088 1.61931 13.1969 2.22854 13.8208C2.85292 14.4556 3.65193 14.8905 4.52403 15.0702C5.39613 15.2499 6.30196 15.1662 7.12642 14.8299C7.95088 14.4936 8.65676 13.9198 9.15436 13.1814C9.65196 12.443 9.91882 11.5733 9.92104 10.6829V5.72458C10.9067 6.42863 12.0885 6.80525 13.2998 6.80125V4.39292C13.0619 4.3939 12.8245 4.37016 12.5915 4.32208H12.5631Z" fill="#36586C"/>
<path d="M76.4306 4.569C76.34 4.26621 76.1636 3.99207 75.92 3.77574C75.6696 3.55276 75.3626 3.39325 75.0281 3.31228C73.7763 3.0031 68.761 3.0031 68.761 3.0031C66.6701 2.98081 64.5798 3.07885 62.5018 3.29667C62.1673 3.38362 61.8609 3.54669 61.6099 3.77137C61.3633 3.99373 61.1846 4.26794 61.0913 4.56838C60.8672 5.70001 60.7582 6.84905 60.766 8C60.758 9.14991 60.8667 10.2986 61.0913 11.4316C61.1826 11.7308 61.3606 12.0038 61.6079 12.2243C61.8552 12.4447 62.1632 12.604 62.5018 12.6883C63.7703 12.9969 68.761 12.9969 68.761 12.9969C70.8545 13.0192 72.9474 12.9212 75.0281 12.7033C75.3626 12.6224 75.6696 12.4628 75.92 12.2399C76.1635 12.0236 76.3397 11.7494 76.4299 11.4466C76.66 10.3154 76.7718 9.16589 76.7639 8.01436C76.7812 6.85796 76.6695 5.70302 76.4306 4.56838V4.569ZM67.1665 10.1387V5.86195L71.3393 8.00062L67.1665 10.1387Z" fill="#36586C"/>
<path fill-rule="evenodd" clip-rule="evenodd" d="M109.766 8C109.766 12.418 106.184 16 101.766 16C97.3476 16 93.7656 12.418 93.7656 8C93.7656 3.582 97.3476 0 101.766 0C106.184 0 109.766 3.582 109.766 8ZM102.052 5.906C101.274 6.22933 99.719 6.89933 97.387 7.91533C97.0083 8.066 96.8096 8.21333 96.7916 8.35733C96.761 8.60133 97.0663 8.69733 97.481 8.82733C97.5376 8.84533 97.5963 8.86333 97.6563 8.88333C98.065 9.016 98.6143 9.17133 98.8996 9.17733C99.159 9.18267 99.4483 9.076 99.7676 8.85733C101.946 7.386 103.071 6.64267 103.142 6.62667C103.192 6.61533 103.261 6.60067 103.308 6.64267C103.354 6.684 103.35 6.76267 103.345 6.784C103.314 6.91267 102.118 8.02533 101.498 8.60133C101.305 8.78067 101.168 8.908 101.14 8.93733C101.078 9.002 101.014 9.064 100.952 9.12333C100.572 9.48867 100.288 9.76333 100.968 10.2113C101.295 10.4267 101.556 10.6047 101.817 10.782C102.102 10.976 102.386 11.1693 102.754 11.4107C102.847 11.472 102.936 11.5353 103.024 11.5973C103.355 11.834 103.653 12.046 104.021 12.0127C104.234 11.9927 104.456 11.792 104.568 11.1927C104.832 9.77533 105.354 6.706 105.474 5.44067C105.482 5.33561 105.477 5.23006 105.461 5.126C105.451 5.04195 105.41 4.96462 105.346 4.90933C105.251 4.83133 105.103 4.81467 105.036 4.816C104.736 4.82133 104.274 4.982 102.052 5.906Z" fill="#36586C"/>
<path d="M36.7675 5.66567C38.0529 5.66567 39.1018 6.71463 39.1018 8C39.1018 9.28537 38.0529 10.3343 36.7675 10.3343C35.4822 10.3343 34.4332 9.28537 34.4332 8C34.4332 6.71463 35.4822 5.66567 36.7675 5.66567ZM29.7664 8C29.7664 7.03335 29.7577 6.07545 29.8119 5.11055C29.8662 3.98979 30.1219 2.99512 30.9414 2.17556C31.7627 1.35426 32.7556 1.10034 33.8764 1.04605C34.843 0.991765 35.8009 1.00052 36.7658 1.00052C37.7324 1.00052 38.6903 0.991765 39.6552 1.04605C40.7759 1.10034 41.7705 1.35601 42.5901 2.17556C43.4114 2.99687 43.6653 3.98979 43.7196 5.11055C43.7739 6.0772 43.7651 7.0351 43.7651 8C43.7651 8.9649 43.7739 9.92455 43.7196 10.8895C43.6653 12.0102 43.4096 13.0049 42.5901 13.8244C41.7688 14.6457 40.7759 14.8997 39.6552 14.9539C38.6885 15.0082 37.7306 14.9995 36.7658 14.9995C35.7991 14.9995 34.8412 15.0082 33.8764 14.9539C32.7556 14.8997 31.761 14.644 30.9414 13.8244C30.1201 13.0031 29.8662 12.0102 29.8119 10.8895C29.7559 9.92455 29.7664 8.96665 29.7664 8ZM36.7675 11.5917C38.7551 11.5917 40.3591 9.98759 40.3591 8C40.3591 6.01241 38.7551 4.40832 36.7675 4.40832C34.78 4.40832 33.1759 6.01241 33.1759 8C33.1759 9.98759 34.78 11.5917 36.7675 11.5917ZM33.0288 5.10004C33.4929 5.10004 33.8676 4.72529 33.8676 4.26122C33.8676 3.79716 33.4929 3.42241 33.0288 3.42241C32.5647 3.42241 32.19 3.79716 32.19 4.26122C32.1899 4.37142 32.2115 4.48056 32.2536 4.58239C32.2957 4.68422 32.3575 4.77675 32.4354 4.85467C32.5133 4.93258 32.6058 4.99437 32.7076 5.03647C32.8095 5.07858 32.9186 5.10018 33.0288 5.10004Z" fill="#36586C"/>
</svg>
