<svg width="142" height="65" viewBox="0 0 142 65" fill="none" xmlns="http://www.w3.org/2000/svg">
<path d="M65.9471 38.2133C64.863 37.4972 63.3312 37.1519 61.3488 37.1519C60.7941 37.1519 60.1605 37.1773 59.4453 37.2311C58.7047 37.2849 58.0177 37.3641 57.356 37.4972V50.7576H60.3689V46.2686H61.3207C63.3284 46.2686 64.863 45.8949 65.9471 45.1789C67.0312 44.4628 67.5606 43.2938 67.5606 41.672C67.5606 40.0728 67.0058 38.9293 65.9471 38.2133ZM63.6494 43.2344C63.12 43.5259 62.3287 43.6589 61.2953 43.6589H60.3436V39.7785C60.5013 39.7785 60.6871 39.753 60.8983 39.753C61.1095 39.7275 61.3207 39.7275 61.5318 39.7275C61.9824 39.7275 62.3766 39.753 62.7201 39.8068C63.089 39.886 63.4072 39.9653 63.6465 40.1266C63.9112 40.2596 64.0971 40.4719 64.2294 40.7125C64.3618 40.9502 64.4406 41.2701 64.4406 41.6409C64.4406 42.4107 64.1759 42.9428 63.6494 43.2344Z" fill="#020C12"/>
<path d="M75.9939 40.0726C75.518 40.9755 74.9887 41.9067 74.4593 42.8096C73.9299 41.8784 73.4005 40.9755 72.8993 40.0471C72.4234 39.1442 72.001 38.213 71.5787 37.2847H68.0898C68.8304 38.7197 69.5963 40.1292 70.3904 41.5104C71.1845 42.8917 72.0292 44.2474 72.9021 45.6287V50.729H75.9151V45.6004C76.788 44.2191 77.6074 42.8634 78.3986 41.5076C79.1927 40.1519 79.9333 38.7706 80.671 37.3101H77.3399C76.9457 38.2413 76.4951 39.1697 75.9939 40.0726Z" fill="#020C12"/>
<path d="M85.3255 47.8051C85.4832 47.6183 85.6972 47.406 85.8803 47.1683C86.0661 46.9277 86.2773 46.7154 86.5138 46.4776C86.7504 46.2371 86.9644 46.0531 87.1474 45.8663C87.5163 45.4927 87.9133 45.1502 88.285 44.7511C88.6539 44.352 88.9974 43.9529 89.3156 43.5284C89.6056 43.1038 89.8703 42.6793 90.0562 42.2264C90.242 41.7735 90.3462 41.2952 90.3462 40.8169C90.3462 40.231 90.425 39.7272 90.2392 39.2743C90.0533 38.8214 89.7887 38.3969 89.4198 38.0799C89.0509 37.7346 88.575 37.494 88.0175 37.31C87.4346 37.1232 86.7757 37.0439 85.9816 37.0439C85.1087 37.0439 84.2893 37.2024 83.5488 37.5478C82.7828 37.8931 82.1211 38.3176 81.5664 38.8497L82.994 40.8678C83.0729 40.7603 83.2052 40.6555 83.3911 40.4942C83.5488 40.3357 83.7881 40.2027 84.0246 40.0413C84.264 39.8828 84.554 39.7498 84.844 39.6422C85.1622 39.5347 85.4776 39.4837 85.8211 39.4837C86.297 39.4837 86.694 39.5913 87.0094 39.8291C87.3276 40.0696 87.4853 40.4659 87.4853 41.0263C87.4853 41.2924 87.4065 41.5584 87.2995 41.7962C87.1953 42.0339 87.0348 42.3 86.8236 42.5406C86.6124 42.7812 86.373 43.0472 86.1112 43.3104C85.8465 43.5765 85.5564 43.868 85.2383 44.1596C84.8412 44.5586 84.4189 44.9294 84.0218 45.3285C83.6248 45.7276 83.2559 46.1267 82.9377 46.5767C82.5942 47.0013 82.3548 47.5051 82.1436 48.0117C81.9578 48.5184 81.8536 49.1014 81.8536 49.7128V50.1911C81.8536 50.4034 81.8536 50.5902 81.879 50.7232H90.7883V48.3061H85.0271C85.0609 48.1787 85.1679 48.0174 85.3255 47.8051Z" fill="#020C12"/>
<path d="M112.845 43.2341C112.394 42.1727 111.972 41.1339 111.549 40.1518C111.127 39.1696 110.705 38.2101 110.254 37.2817H107.399C106.948 38.2101 106.526 39.1668 106.104 40.1518C105.681 41.1084 105.259 42.1444 104.834 43.2341C104.411 44.3238 103.961 45.4927 103.513 46.7154C103.063 47.9382 102.587 49.2656 102.085 50.7289H105.205C105.363 50.2761 105.524 49.7977 105.681 49.2939C105.839 48.8156 106.025 48.3118 106.182 47.8334H111.417C111.575 48.3118 111.761 48.7901 111.921 49.2939C112.079 49.7723 112.239 50.2506 112.397 50.7289H115.596C115.095 49.2939 114.619 47.9382 114.168 46.7154C113.718 45.4672 113.292 44.2983 112.845 43.2341ZM106.844 45.4418C107.055 44.8559 107.267 44.2983 107.478 43.7662C107.689 43.2341 107.849 42.7557 108.033 42.3057C108.218 41.8528 108.351 41.482 108.483 41.1367C108.615 40.7914 108.694 40.5254 108.773 40.3386C108.852 40.5254 108.959 40.7914 109.091 41.1367C109.224 41.482 109.356 41.8528 109.542 42.3057C109.728 42.7586 109.913 43.2369 110.097 43.7662C110.282 44.2983 110.468 44.8559 110.679 45.4418H106.844Z" fill="#020C12"/>
<path d="M126.642 44.8024C126.324 44.2448 125.744 43.7919 124.897 43.4749C125.927 42.8381 126.431 41.9862 126.431 40.9248C126.431 40.2087 126.299 39.5973 126.009 39.1161C125.719 38.6378 125.297 38.2387 124.792 37.9472C124.263 37.6557 123.655 37.4434 122.942 37.3103C122.23 37.1773 121.436 37.1235 120.591 37.1235C119.983 37.1235 119.296 37.149 118.555 37.2028C117.815 37.2566 117.128 37.3613 116.52 37.4688V50.517C117.311 50.6755 118.051 50.783 118.792 50.8368C119.532 50.8906 120.245 50.916 120.985 50.916C123.021 50.916 124.528 50.5707 125.584 49.8801C126.614 49.164 127.118 48.0998 127.118 46.6903C127.118 45.9997 126.961 45.36 126.642 44.8024ZM119.479 39.6482C119.718 39.6228 119.983 39.5945 120.273 39.5945H121.092C121.912 39.5945 122.495 39.6992 122.917 39.9143C123.314 40.1266 123.525 40.5257 123.525 41.0578C123.525 41.5899 123.314 41.9607 122.917 42.2013C122.52 42.4673 121.861 42.572 120.935 42.572H119.482V39.6482H119.479ZM123.207 48.046C122.678 48.3121 121.937 48.4451 121.039 48.4451C120.721 48.4451 120.456 48.4196 120.194 48.4196C119.93 48.4196 119.693 48.3942 119.482 48.3659V44.8845H121.36C122.205 44.8845 122.866 45.0175 123.342 45.2836C123.793 45.5496 124.029 45.9996 124.029 46.611C124.027 47.3016 123.762 47.78 123.207 48.046Z" fill="#020C12"/>
<path d="M95.2376 37.2817H92.2246V50.7289H101.159V48.125H95.2376V37.2817Z" fill="#020C12"/>
<path d="M37 29.8207C37.1858 29.9254 37.3942 30.0075 37.6054 30.0867C37.9207 30.1915 38.2361 30.2452 38.5796 30.2452C39.1344 30.2452 39.6863 30.0867 40.134 29.8207C40.5564 29.5829 40.8971 29.2121 41.1618 28.7876C41.4518 28.3376 41.6095 27.8083 41.6095 27.2252C41.6095 26.6421 41.4518 26.1129 41.1618 25.6911C40.9252 25.2666 40.5564 24.9241 40.134 24.658C39.6863 24.3665 39.1597 24.208 38.5796 24.208C38.2389 24.208 37.9207 24.2618 37.6054 24.3665C37.3942 24.4203 37.183 24.525 37 24.6326C36.5776 24.8703 36.2369 25.2411 35.9722 25.6657C35.7103 26.1157 35.5498 26.645 35.5498 27.228C35.5498 27.7828 35.7075 28.3404 35.9722 28.7904C36.2341 29.2121 36.5776 29.5575 37 29.8207Z" fill="#020C12"/>
<path d="M47.8214 14.3641H47.7679C47.2949 14.2311 46.819 14.1519 46.2924 14.1519H20.3557C19.8292 14.1519 19.3026 14.2311 18.8295 14.3896C17.1964 14.8934 15.9067 16.2152 15.4055 17.8568C15.2478 18.3607 15.1689 18.8616 15.1689 19.3909V45.3824V45.4617C15.1689 45.991 15.2478 46.5202 15.4055 46.9957C15.9067 48.6374 17.1964 49.9337 18.8295 50.4375C19.3026 50.596 19.8292 50.6753 20.3557 50.6753H33.3367C33.5479 50.6753 33.731 50.6498 33.9422 50.596C35.0741 50.3045 35.9161 49.2997 35.9161 48.0543C35.9161 46.8118 35.0741 45.7787 33.9422 45.5126C33.7845 45.4588 33.6268 45.4334 33.4691 45.4334H22.9632C22.7267 45.4334 22.4901 45.4079 22.2789 45.3541C21.2005 45.0626 20.3839 44.0295 20.3839 42.8379V21.9864C20.3839 20.5316 21.544 19.3654 22.9913 19.3654H43.7413C45.1886 19.3654 46.3487 20.557 46.3487 21.9864V32.4164C46.3487 33.8712 45.1633 35.0373 43.7413 35.0373H41.1591H33.3649C31.9429 35.0373 30.7856 33.874 30.7856 32.4164V27.2028C30.7856 25.7735 29.6001 24.6073 28.1781 24.6073C26.7561 24.6073 25.596 25.7735 25.596 27.2028V35.0373C25.596 35.5666 25.6748 36.0959 25.8325 36.5714C26.3338 38.213 27.6234 39.5094 29.2566 40.0132C29.7297 40.1717 30.2562 40.2509 30.7828 40.2509H46.3459C46.8471 40.2509 47.3456 40.1717 47.8214 40.0386V40.0132C47.8214 40.0132 47.8214 40.0386 47.8468 40.0386C49.5053 39.5348 50.795 38.2385 51.2962 36.5969C51.4539 36.1469 51.5327 35.643 51.5327 35.1421V19.4192C51.5327 18.8645 51.4539 18.3607 51.2427 17.8031C50.7443 16.1643 49.4546 14.8679 47.8214 14.3641Z" fill="#020C12"/>
<path d="M42.7669 45.9399C42.5022 45.7276 42.1869 45.5691 41.8461 45.4899C41.6603 45.4644 41.4773 45.4106 41.2942 45.4106H41.0296C40.8437 45.4106 40.6607 45.4361 40.4776 45.4899C39.3203 45.7814 38.4756 46.84 38.4756 48.0825C38.4756 49.3534 39.3175 50.3865 40.4776 50.7035C40.6888 50.7573 40.9254 50.7827 41.1619 50.7827C41.3984 50.7827 41.635 50.7573 41.8461 50.7035C42.1869 50.5988 42.5304 50.4403 42.7951 50.228C43.4286 49.7242 43.8482 48.9571 43.8482 48.0825C43.8454 47.2108 43.423 46.4437 42.7669 45.9399Z" fill="#020C12"/>
<path d="M49.5336 45.4645C49.3478 45.439 49.1648 45.3853 48.9817 45.3853H48.6917C48.5087 45.3853 48.3228 45.4107 48.1398 45.4645C48.0356 45.49 47.9286 45.5183 47.8244 45.5692C47.1655 45.8608 46.6136 46.4155 46.3489 47.1033C46.2166 47.4203 46.1631 47.7401 46.1631 48.0826C46.1631 48.4279 46.2419 48.7704 46.3489 49.0619C46.6108 49.7497 47.1402 50.3045 47.8244 50.596C47.9286 50.6215 48.061 50.6753 48.1651 50.7007C48.3763 50.7545 48.6129 50.78 48.8494 50.78C49.0859 50.78 49.3225 50.7545 49.5336 50.7007C50.691 50.3837 51.5357 49.3252 51.5357 48.0798C51.5357 46.8401 50.691 45.807 49.5336 45.4645Z" fill="#020C12"/>
</svg>
