<svg width="16" height="15" viewBox="0 0 16 15" fill="none" xmlns="http://www.w3.org/2000/svg">
<path d="M8.03531 0C4.12979 0 0.952393 3.26326 0.952393 7.27431C0.952393 11.2854 4.12979 14.5486 8.03531 14.5486C11.9408 14.5486 15.1182 11.2854 15.1182 7.27431C15.1182 3.26326 11.9408 0 8.03531 0ZM10.5094 5.09202C10.6506 5.08831 10.7911 5.11369 10.9226 5.16664C11.0542 5.2196 11.174 5.29906 11.2752 5.40035C11.3763 5.50164 11.4567 5.6227 11.5115 5.7564C11.5664 5.8901 11.5946 6.03372 11.5946 6.17881C11.5945 6.32389 11.5662 6.4675 11.5113 6.60116C11.4563 6.73482 11.3759 6.85582 11.2747 6.95704C11.1734 7.05826 11.0535 7.13765 10.922 7.19051C10.7904 7.24338 10.6499 7.26865 10.5087 7.26485C10.2329 7.25743 9.97077 7.13966 9.77828 6.93665C9.58579 6.73364 9.47812 6.46144 9.47821 6.17808C9.4783 5.89472 9.58615 5.62259 9.77878 5.41972C9.9714 5.21684 10.2336 5.09925 10.5094 5.09202ZM5.55629 5.09202C5.69586 5.09206 5.83405 5.12034 5.96298 5.17524C6.0919 5.23014 6.20904 5.31058 6.30769 5.41197C6.40635 5.51336 6.4846 5.63371 6.53796 5.76616C6.59133 5.89861 6.61878 6.04055 6.61873 6.18389C6.61868 6.32723 6.59115 6.46916 6.53769 6.60157C6.48424 6.73398 6.40592 6.85428 6.30719 6.9556C6.20847 7.05692 6.09128 7.13728 5.96232 7.19209C5.83336 7.2469 5.69515 7.27508 5.55558 7.27504C5.27371 7.27494 5.00342 7.15985 4.80418 6.95508C4.60493 6.75032 4.49305 6.47265 4.49314 6.18316C4.49324 5.89368 4.6053 5.61608 4.80468 5.41146C5.00406 5.20683 5.27442 5.09192 5.55629 5.09202ZM8.03531 11.6389C5.20214 11.6389 4.49385 8.72917 4.49385 8.72917H11.5768C11.5768 8.72917 10.8685 11.6389 8.03531 11.6389Z" fill="#EFEFEF"/>
</svg>
