<svg width="15" height="15" viewBox="0 0 15 15" fill="none" xmlns="http://www.w3.org/2000/svg">
<path d="M7.08333 0C3.17758 0 0 3.26326 0 7.27431C0 11.2854 3.17758 14.5486 7.08333 14.5486C10.9891 14.5486 14.1667 11.2854 14.1667 7.27431C14.1667 3.26326 10.9891 0 7.08333 0ZM9.55754 5.09202C9.69877 5.08831 9.83929 5.11369 9.97082 5.16664C10.1024 5.2196 10.2222 5.29906 10.3234 5.40035C10.4245 5.50164 10.5049 5.6227 10.5598 5.7564C10.6146 5.8901 10.6429 6.03372 10.6428 6.17881C10.6428 6.32389 10.6144 6.4675 10.5595 6.60116C10.5045 6.73482 10.4241 6.85582 10.3229 6.95704C10.2216 7.05826 10.1017 7.13765 9.97016 7.19051C9.8386 7.24338 9.69806 7.26865 9.55683 7.26485C9.281 7.25743 9.0189 7.13966 8.8264 6.93665C8.6339 6.73364 8.52622 6.46144 8.52631 6.17808C8.5264 5.89472 8.63426 5.62259 8.8269 5.41972C9.01953 5.21684 9.28171 5.09925 9.55754 5.09202ZM4.60417 5.09202C4.74374 5.09206 4.88194 5.12034 5.01088 5.17524C5.13981 5.23014 5.25695 5.31058 5.35561 5.41197C5.45428 5.51336 5.53253 5.63371 5.5859 5.76616C5.63927 5.89861 5.66671 6.04055 5.66667 6.18389C5.66662 6.32723 5.63908 6.46916 5.58563 6.60157C5.53217 6.73398 5.45384 6.85428 5.35511 6.9556C5.25639 7.05692 5.13919 7.13728 5.01022 7.19209C4.88125 7.2469 4.74303 7.27508 4.60346 7.27504C4.32157 7.27494 4.05127 7.15985 3.85201 6.95508C3.65275 6.75032 3.54086 6.47265 3.54096 6.18316C3.54105 5.89368 3.65312 5.61608 3.85251 5.41146C4.0519 5.20683 4.32228 5.09192 4.60417 5.09202ZM7.08333 11.6389C4.25 11.6389 3.54167 8.72917 3.54167 8.72917H10.625C10.625 8.72917 9.91667 11.6389 7.08333 11.6389Z" fill="#EFEFEF"/>
</svg>
