<svg width="112" height="80" viewBox="0 0 112 80" fill="none" xmlns="http://www.w3.org/2000/svg">
<path d="M0 66.1945V13.2389C0 9.72772 1.475 6.36036 4.10051 3.87758C6.72601 1.39481 10.287 0 14 0H98C101.713 0 105.274 1.39481 107.899 3.87758C110.525 6.36036 112 9.72772 112 13.2389V66.1945C112 69.7057 110.525 73.073 107.899 75.5558C105.274 78.0386 101.713 79.4334 98 79.4334H14C10.287 79.4334 6.72601 78.0386 4.10051 75.5558C1.475 73.073 0 69.7057 0 66.1945ZM47.53 20.474C47.0067 20.1216 46.3908 19.9122 45.75 19.8688C45.1092 19.8254 44.4682 19.9497 43.8971 20.2279C43.3259 20.5061 42.8468 20.9276 42.5122 21.4462C42.1776 21.9649 42.0004 22.5605 42 23.1681V56.2653C42.0004 56.8728 42.1776 57.4685 42.5122 57.9871C42.8468 58.5057 43.3259 58.9272 43.8971 59.2055C44.4682 59.4837 45.1092 59.6079 45.75 59.5645C46.3908 59.5211 47.0067 59.3118 47.53 58.9594L72.03 42.4108C72.4837 42.1046 72.8535 41.7004 73.1087 41.2318C73.3638 40.7632 73.497 40.2438 73.497 39.7167C73.497 39.1896 73.3638 38.6701 73.1087 38.2015C72.8535 37.7329 72.4837 37.3287 72.03 37.0226L47.53 20.474Z" fill="#DFE1ED"/>
</svg>
