<svg width="22" height="21" viewBox="0 0 22 21" fill="none" xmlns="http://www.w3.org/2000/svg">
<path d="M19.4832 4.85613C16.3332 -0.000160531 9.90186 -1.44392 4.91432 1.57485C0.0580301 4.59362 -1.51698 11.1562 1.63304 16.0125L1.89554 16.4062L0.845536 20.3437L4.78307 19.2937L5.17682 19.5562C6.88308 20.475 8.7206 21 10.5581 21C12.5269 21 14.4956 20.475 16.2019 19.425C21.0582 16.275 22.502 9.84366 19.4832 4.85613ZM16.7269 14.9625C16.2019 15.75 15.5456 16.275 14.6269 16.4062C14.1019 16.4062 13.4456 16.6687 10.8206 15.6187C8.58934 14.5687 6.75183 12.8624 5.43932 10.8937C4.65182 9.97492 4.25806 8.79366 4.12681 7.6124C4.12681 6.56239 4.52056 5.64363 5.17682 4.98738C5.43932 4.72488 5.70182 4.59362 5.96433 4.59362H6.62058C6.88308 4.59362 7.14558 4.59363 7.27684 5.11863C7.53934 5.77488 8.19559 7.3499 8.19559 7.48115C8.32684 7.6124 8.32684 7.8749 8.19559 8.00615C8.32684 8.26865 8.19559 8.53116 8.06434 8.66241C7.93309 8.79366 7.80184 9.05616 7.67059 9.18741C7.40809 9.31866 7.27684 9.58116 7.40809 9.84367C7.93309 10.6312 8.58935 11.4187 9.2456 12.0749C10.0331 12.7312 10.8206 13.2562 11.7394 13.6499C12.0019 13.7812 12.2644 13.7812 12.3956 13.5187C12.5269 13.2562 13.1831 12.5999 13.4456 12.3374C13.7081 12.0749 13.8394 12.0749 14.1019 12.2062L16.2019 13.2562C16.4644 13.3874 16.7269 13.5187 16.8582 13.6499C16.9894 14.0437 16.9894 14.5687 16.7269 14.9625Z" fill="#EFEFEF"/>
</svg>
