<svg width="21" height="21" viewBox="0 0 21 21" fill="none" xmlns="http://www.w3.org/2000/svg">
<path d="M10.4956 0C4.70837 0 0 4.70925 0 10.4965C0 16.289 4.70837 21 10.4956 21C16.2881 21 21 16.2881 21 10.4965C21 4.70925 16.2881 0 10.4956 0ZM5.1695 14.3535C6.37124 13.9854 7.62089 13.7972 8.87775 13.7952C10.99 13.7952 13.0751 14.3307 14.9082 15.344C15.0176 15.4035 15.1165 15.5995 15.162 15.8445C15.2057 16.0895 15.1882 16.3406 15.1165 16.471C15.0827 16.533 15.0369 16.5877 14.9818 16.6319C14.9267 16.6761 14.8634 16.7089 14.7955 16.7284C14.7276 16.748 14.6565 16.7538 14.5864 16.7457C14.5162 16.7375 14.4484 16.7156 14.3867 16.681C13.0403 15.9424 11.5592 15.4817 10.0314 15.3262C8.50349 15.1708 6.95998 15.3239 5.49237 15.7763C5.425 15.798 5.35397 15.8062 5.28341 15.8003C5.21285 15.7943 5.14418 15.7744 5.08139 15.7417C5.01861 15.7089 4.96296 15.664 4.9177 15.6096C4.87244 15.5551 4.83846 15.4922 4.81775 15.4245C4.72412 15.1182 4.9175 14.4357 5.1695 14.3535ZM4.71187 10.486C6.06948 10.1172 7.47006 9.93033 8.87687 9.93038C11.4091 9.93038 13.923 10.5429 16.1481 11.7031C16.3048 11.7819 16.4194 11.9166 16.4719 12.0811C16.4984 12.1642 16.5081 12.2517 16.5002 12.3386C16.4924 12.4255 16.4673 12.5099 16.4264 12.5869C16.2278 12.9754 15.995 13.237 15.8489 13.237C15.7423 13.2365 15.6373 13.2107 15.5426 13.1617C13.4857 12.0879 11.1981 11.5311 8.87775 11.5395C7.58707 11.5369 6.30198 11.7091 5.0575 12.0514C4.97448 12.0741 4.8878 12.0802 4.80242 12.0694C4.71703 12.0586 4.63461 12.0311 4.55986 11.9884C4.48511 11.9458 4.41949 11.8888 4.36675 11.8208C4.31402 11.7528 4.27519 11.675 4.2525 11.592C4.1545 11.2227 4.37937 10.577 4.71187 10.486ZM4.59375 7.96075C4.49526 7.98603 4.39275 7.99155 4.29211 7.97699C4.19148 7.96244 4.09473 7.9281 4.00744 7.87595C3.92015 7.82381 3.84405 7.75489 3.78354 7.67318C3.72303 7.59146 3.6793 7.49858 3.65488 7.39987C3.54725 6.96412 3.81938 6.45837 4.21487 6.35863C5.74044 5.98287 7.30571 5.79221 8.87687 5.79075C11.8956 5.79075 14.7884 6.46975 17.4729 7.80938C17.6573 7.90109 17.7978 8.06229 17.8634 8.25754C17.9291 8.4528 17.9145 8.66612 17.8229 8.85063C17.6978 9.10262 17.4265 9.37388 17.1272 9.37388C17.0099 9.37344 16.8941 9.34746 16.7878 9.29775C14.333 8.06631 11.6232 7.42909 8.87687 7.4375C7.44625 7.4375 6.00513 7.61337 4.59375 7.96075Z" fill="#EFEFEF"/>
</svg>
